<?xml version="1.0" standalone="no"?>
<!DOCTYPE svg PUBLIC "-//W3C//DTD SVG 20010904//EN"
 "http://www.w3.org/TR/2001/REC-SVG-20010904/DTD/svg10.dtd">
<svg version="1.0" xmlns="http://www.w3.org/2000/svg"
 width="187.000000pt" height="161.000000pt" viewBox="0 0 187.000000 161.000000"
 preserveAspectRatio="xMidYMid meet">

<g transform="translate(0.000000,161.000000) scale(0.100000,-0.100000)"
fill="#ffffff" stroke="none">
<path d="M192 1595 c-24 -11 -39 -28 -55 -62 -32 -72 -29 -245 6 -412 15 -68
27 -142 27 -165 0 -76 -30 -168 -95 -292 -61 -118 -65 -129 -65 -192 0 -210
196 -356 581 -434 100 -20 142 -23 334 -21 236 1 344 14 505 59 254 72 430
228 430 380 0 61 -15 106 -80 239 -89 184 -101 256 -70 444 21 133 28 300 14
356 -20 84 -66 121 -137 110 -56 -9 -137 -46 -201 -92 -72 -52 -245 -223 -240
-237 2 -6 -16 -35 -40 -64 -50 -59 -127 -179 -151 -234 -8 -21 -17 -38 -19
-38 -2 0 -26 35 -52 77 -27 43 -82 113 -123 156 -64 67 -73 81 -64 97 10 15
-1 29 -88 106 -206 183 -338 252 -417 219z m127 -175 c52 -38 151 -139 151
-154 0 -7 -18 -20 -40 -30 -22 -10 -63 -36 -91 -58 -28 -22 -52 -38 -54 -36
-7 7 -35 217 -35 262 0 56 10 58 69 16z m1267 -87 c-3 -65 -10 -133 -14 -150
l-7 -33 -65 45 c-35 25 -81 51 -102 57 -21 6 -38 16 -38 22 0 16 127 134 168
156 66 34 66 34 58 -97z m-1000 -609 c20 -19 24 -31 19 -52 -21 -86 -125 -80
-125 8 0 30 8 43 35 58 30 17 43 15 71 -14z m798 5 c47 -37 25 -119 -33 -119
-32 0 -56 23 -66 62 -5 21 -1 33 19 52 31 31 45 32 80 5z m-337 -220 c81 -39
115 -129 64 -170 -39 -32 -114 -19 -151 27 -13 15 -10 20 23 48 20 17 37 34
37 37 0 3 -31 6 -70 7 -38 0 -70 -4 -70 -8 0 -5 14 -18 30 -30 36 -26 38 -43
5 -75 -52 -53 -155 -19 -155 49 0 101 173 170 287 115z"/>
</g>
</svg>
